Sai.de.Baixo.2013.S01E02.SDTV.x264-Junio-Tk2

Reencode do rls VitorGrabriel


Episódio - Quem Casa Quer Caco.

Os moradores do Largo do Arouche, que não se reúnem há 11 anos, recebem um convite anônimo para voltarem ao antigo prédio onde viveram. Caco Antibes (Miguel Falabella), Magda (Marisa Orth), Vavá (Luis Gustavo) e Cassandra (Aracy Balabanian) não resistem e, mortos de curiosidade, vão até lá. A anfitriã misteriosa é a ex-empregada doméstica Neide Aparecida (Marcia Cabrita). Ela deu a volta por cima e está muito rica: comprou o antigo apartamento, que Vavá perdeu por não pagar o condomínio, e chamou os ex-patrões para ostentar. Como estão todos sem grana, se submetem a viver de favor no antigo endereço. Nesse retorno ao passado, Caco Antibes permanece tão reacionário e arrogante quanto antes, e sua mulher, Magda, muito mais burra. O episódio tem participação especial de Tony Ramos, como um mordomo trambiqueiro.

Format                                   : AVC
Format/Info                              : Advanced Video Codec
Format profile                           : High@L1.3
Format settings, CABAC                   : No
Format settings, ReFrames                : 1 frame
Codec ID                                 : avc1
Codec ID/Info                            : Advanced Video Coding
Duration                                 : 1h 9mn
Bit rate                                 : 512 Kbps
Maximum bit rate                         : 1 161 Kbps
Width                                    : 640 pixels
Height                                   : 352 pixels
Display aspect ratio                     : 16:9
Original display aspect ratio            : 16:9
Frame rate mode                          : Constant
Frame rate                               : 23.976 fps
Color space                              : YUV
Chroma subsampling                       : 4:2:0
Bit depth                                : 8 bits
Scan type                                : Progressive
Bits/(Pixel*Frame)                       : 0.095
Stream size                              : 255 MiB (80%)


Audio
ID                                       : 2
Format                                   : AAC
Format/Info                              : Advanced Audio Codec
Format profile                           : LC
Codec ID                                 : 40
Duration                                 : 1h 9mn
Bit rate mode                            : Variable
Bit rate                                 : 127 Kbps
Maximum bit rate                         : 165 Kbps
Channel(s)                               : 2 channels
Channel positions                        : Front: L R
Sampling rate                            : 24.0 KHz
Compression mode                         : Lossy
Stream size                              : 62.9 MiB (20%)